<?xml version="1.0" standalone="no"?>
<!DOCTYPE svg PUBLIC "-//W3C//DTD SVG 20010904//EN"
 "http://www.w3.org/TR/2001/REC-SVG-20010904/DTD/svg10.dtd">
<svg version="1.0" xmlns="http://www.w3.org/2000/svg"
 width="1280.000000pt" height="1280.000000pt" viewBox="0 0 1280.000000 1280.000000"
 preserveAspectRatio="xMidYMid meet">
<g transform="translate(0.000000,1280.000000) scale(0.100000,-0.100000)"
fill="#000000" stroke="none">
<path d="M4670 12797 c0 -12 76 -180 105 -234 90 -163 240 -362 453 -598 160
-178 656 -673 715 -714 46 -32 49 -32 45 -11 -11 79 110 15 222 -117 186 -219
252 -365 267 -590 3 -51 10 -90 14 -87 12 7 11 -100 -2 -172 -38 -214 -146
-425 -322 -626 -79 -89 -143 -146 -154 -135 -3 4 11 34 31 67 21 33 39 76 41
95 2 29 -6 19 -62 -73 -36 -59 -72 -115 -80 -124 -28 -31 -34 -19 -13 22 25
49 41 90 35 90 -2 0 -16 -21 -31 -47 -15 -27 -35 -57 -45 -68 -9 -11 -26 -39
-38 -62 -13 -26 -118 -141 -259 -285 -230 -235 -353 -378 -497 -578 -383 -531
-560 -959 -619 -1499 l-13 -119 -59 -67 c-65 -74 -132 -127 -190 -151 -70 -29
-172 -104 -234 -172 -77 -83 -124 -181 -180 -367 -22 -77 -52 -164 -65 -193
-47 -103 -135 -249 -210 -347 -97 -129 -118 -183 -113 -292 4 -73 9 -92 55
-185 58 -119 137 -239 233 -353 95 -114 107 -137 92 -178 -19 -53 -14 -66 10
-24 12 20 24 37 27 37 4 0 21 -13 39 -28 l32 -27 -75 -219 c-149 -431 -240
-888 -276 -1376 -16 -227 2 -495 48 -705 44 -205 138 -466 240 -670 l55 -109
-12 -52 c-10 -40 -10 -72 -2 -136 9 -74 14 -86 43 -112 30 -27 36 -28 94 -22
l62 6 57 -85 c51 -78 56 -89 50 -125 -4 -21 -3 -78 1 -126 6 -79 10 -91 37
-117 26 -27 33 -29 75 -23 26 3 57 13 69 21 13 8 28 15 34 15 5 0 65 -55 132
-121 139 -138 330 -301 445 -379 43 -29 84 -60 91 -69 9 -12 11 -38 6 -98 l-7
-83 2981 0 2982 0 -5 28 c-47 265 -84 424 -161 697 -25 88 -79 280 -119 426
-167 603 -241 792 -574 1459 -137 275 -246 509 -296 635 -44 110 -131 303
-192 429 -62 126 -113 234 -113 241 0 6 13 26 28 43 26 29 29 30 45 15 15 -15
17 -15 22 3 20 59 22 61 35 31 13 -27 13 -27 32 -7 18 19 38 18 66 -3 8 -6 12
-6 12 2 0 26 18 -1 24 -36 10 -55 16 -73 26 -73 19 0 32 120 37 345 2 132 7
247 9 255 11 33 23 -19 34 -146 9 -108 14 -159 31 -299 4 -27 18 88 19 150 1
72 11 73 24 2 4 -23 12 -37 22 -37 15 0 38 -45 49 -94 7 -33 15 -28 30 17 7
21 18 33 35 37 23 5 25 11 32 90 4 47 7 155 6 240 0 85 0 169 1 185 2 26 3 28
11 10 6 -13 7 -4 3 26 -6 49 18 119 41 119 7 0 19 -35 28 -82 l16 -83 -5 116
c-4 90 -2 122 10 145 28 56 87 280 111 424 13 80 47 240 74 355 62 254 117
523 171 830 88 499 111 670 191 1460 47 467 64 590 126 912 79 416 85 467 91
729 7 323 -11 476 -82 691 -62 185 -139 309 -255 408 -154 131 -307 184 -580
199 -47 2 -92 7 -102 11 -9 4 -26 32 -39 63 -12 31 -39 91 -59 132 -20 41 -52
113 -70 160 -18 47 -57 137 -87 200 -62 132 -88 188 -214 470 -51 113 -105
228 -120 255 -15 28 -46 102 -68 165 -79 228 -100 280 -127 310 -7 8 -27 43
-44 78 l-31 62 -2254 0 c-1240 0 -2255 -1 -2255 -3z m5309 -1837 c11 -24 11
-24 -3 -6 -9 11 -16 24 -16 30 0 12 5 7 19 -24z m-4968 -2633 c-10 -9 -11 -8
-5 6 3 10 9 15 12 12 3 -3 0 -11 -7 -18z m-177 -317 c-79 -160 -147 -332 -194
-486 -49 -165 -71 -166 -24 -1 33 117 84 253 140 375 47 100 144 276 150 270
1 -2 -31 -73 -72 -158z m4676 -3975 c0 -5 -5 -3 -10 5 -5 8 -10 20 -10 25 0 6
5 3 10 -5 5 -8 10 -19 10 -25z"/>
<path d="M6352 10811 l53 -105 0 -127 c0 -89 3 -121 9 -106 6 12 10 69 10 128
1 102 0 107 -36 180 -21 40 -49 88 -63 104 -18 21 -10 -1 27 -74z"/>
<path d="M6272 10150 c-29 -60 -52 -117 -51 -127 0 -18 56 94 90 181 32 86 14
61 -39 -54z"/>
</g>
</svg>
